<mxfile host="app.diagrams.net" modified="2022-08-23T06:03:48.438Z" agent="5.0 (Windows NT 10.0; Win64; x64) AppleWebKit/537.36 (KHTML, like Gecko) Chrome/104.0.5112.87 Whale/3.16.138.22 Safari/537.36" etag="CXHqSnqzMnPa83c2-3u5" version="20.2.6" type="github">
  <diagram id="iK4JT7GIlN1NjpNNLqYm" name="페이지-1">
    <mxGraphModel dx="878" dy="817" grid="1" gridSize="10" guides="1" tooltips="1" connect="1" arrows="1" fold="1" page="1" pageScale="1" pageWidth="827" pageHeight="1169" math="0" shadow="0">
      <root>
        <mxCell id="0" />
        <mxCell id="1" parent="0" />
        <mxCell id="CTTRBKpKclN4i-Cek2ic-7" style="rounded=0;orthogonalLoop=1;jettySize=auto;html=1;startArrow=block;startFill=0;endArrow=none;endFill=0;endSize=10;startSize=17;" parent="1" edge="1">
          <mxGeometry relative="1" as="geometry">
            <mxPoint x="90" y="320" as="sourcePoint" />
            <mxPoint x="140" y="270" as="targetPoint" />
          </mxGeometry>
        </mxCell>
        <mxCell id="CTTRBKpKclN4i-Cek2ic-9" style="edgeStyle=none;rounded=0;orthogonalLoop=1;jettySize=auto;html=1;startArrow=block;startFill=0;endArrow=none;endFill=0;startSize=17;endSize=10;" parent="1" edge="1">
          <mxGeometry relative="1" as="geometry">
            <mxPoint x="90" y="370" as="sourcePoint" />
            <mxPoint x="140" y="410" as="targetPoint" />
          </mxGeometry>
        </mxCell>
        <mxCell id="CTTRBKpKclN4i-Cek2ic-1" value="Web&lt;br&gt;Customer" style="shape=umlActor;verticalLabelPosition=bottom;verticalAlign=top;html=1;" parent="1" vertex="1">
          <mxGeometry x="40" y="310" width="30" height="60" as="geometry" />
        </mxCell>
        <mxCell id="CTTRBKpKclN4i-Cek2ic-37" style="edgeStyle=none;rounded=0;orthogonalLoop=1;jettySize=auto;html=1;entryX=0;entryY=0.5;entryDx=0;entryDy=0;startArrow=none;startFill=0;endArrow=none;endFill=0;startSize=17;endSize=7;" parent="1" source="CTTRBKpKclN4i-Cek2ic-2" target="CTTRBKpKclN4i-Cek2ic-16" edge="1">
          <mxGeometry relative="1" as="geometry" />
        </mxCell>
        <mxCell id="CTTRBKpKclN4i-Cek2ic-38" style="edgeStyle=none;rounded=0;orthogonalLoop=1;jettySize=auto;html=1;entryX=0;entryY=0.5;entryDx=0;entryDy=0;startArrow=none;startFill=0;endArrow=none;endFill=0;startSize=17;endSize=7;" parent="1" source="CTTRBKpKclN4i-Cek2ic-2" target="CTTRBKpKclN4i-Cek2ic-18" edge="1">
          <mxGeometry relative="1" as="geometry" />
        </mxCell>
        <mxCell id="CTTRBKpKclN4i-Cek2ic-2" value="Registered&lt;br&gt;Customer" style="shape=umlActor;verticalLabelPosition=bottom;verticalAlign=top;html=1;" parent="1" vertex="1">
          <mxGeometry x="160" y="220" width="30" height="60" as="geometry" />
        </mxCell>
        <mxCell id="CTTRBKpKclN4i-Cek2ic-39" style="edgeStyle=none;rounded=0;orthogonalLoop=1;jettySize=auto;html=1;entryX=0.207;entryY=0.92;entryDx=0;entryDy=0;entryPerimeter=0;startArrow=none;startFill=0;endArrow=none;endFill=0;startSize=17;endSize=7;" parent="1" source="CTTRBKpKclN4i-Cek2ic-3" target="CTTRBKpKclN4i-Cek2ic-16" edge="1">
          <mxGeometry relative="1" as="geometry" />
        </mxCell>
        <mxCell id="CTTRBKpKclN4i-Cek2ic-40" style="edgeStyle=none;rounded=0;orthogonalLoop=1;jettySize=auto;html=1;entryX=0;entryY=0;entryDx=0;entryDy=0;startArrow=none;startFill=0;endArrow=none;endFill=0;startSize=17;endSize=7;" parent="1" source="CTTRBKpKclN4i-Cek2ic-3" target="CTTRBKpKclN4i-Cek2ic-20" edge="1">
          <mxGeometry relative="1" as="geometry" />
        </mxCell>
        <mxCell id="CTTRBKpKclN4i-Cek2ic-3" value="New&lt;br&gt;Customer" style="shape=umlActor;verticalLabelPosition=bottom;verticalAlign=top;html=1;" parent="1" vertex="1">
          <mxGeometry x="160" y="400" width="30" height="60" as="geometry" />
        </mxCell>
        <mxCell id="CTTRBKpKclN4i-Cek2ic-15" value="" style="swimlane;startSize=0;" parent="1" vertex="1">
          <mxGeometry x="270" y="120" width="250" height="520" as="geometry">
            <mxRectangle x="350" y="320" width="50" height="40" as="alternateBounds" />
          </mxGeometry>
        </mxCell>
        <mxCell id="CTTRBKpKclN4i-Cek2ic-16" value="View items" style="ellipse;whiteSpace=wrap;html=1;" parent="CTTRBKpKclN4i-Cek2ic-15" vertex="1">
          <mxGeometry x="55" y="70" width="140" height="50" as="geometry" />
        </mxCell>
        <mxCell id="CTTRBKpKclN4i-Cek2ic-17" value="Online Shopping" style="text;align=center;fontStyle=1;verticalAlign=middle;spacingLeft=3;spacingRight=3;strokeColor=none;rotatable=0;points=[[0,0.5],[1,0.5]];portConstraint=eastwest;" parent="CTTRBKpKclN4i-Cek2ic-15" vertex="1">
          <mxGeometry x="85" y="10" width="80" height="26" as="geometry" />
        </mxCell>
        <mxCell id="CTTRBKpKclN4i-Cek2ic-18" value="Make&lt;br&gt;Purchase" style="ellipse;whiteSpace=wrap;html=1;" parent="CTTRBKpKclN4i-Cek2ic-15" vertex="1">
          <mxGeometry x="55" y="180" width="140" height="50" as="geometry" />
        </mxCell>
        <mxCell id="CTTRBKpKclN4i-Cek2ic-19" value="Checkout" style="ellipse;whiteSpace=wrap;html=1;" parent="CTTRBKpKclN4i-Cek2ic-15" vertex="1">
          <mxGeometry x="55" y="290" width="140" height="50" as="geometry" />
        </mxCell>
        <mxCell id="CTTRBKpKclN4i-Cek2ic-20" value="Client&lt;br&gt;Register" style="ellipse;whiteSpace=wrap;html=1;" parent="CTTRBKpKclN4i-Cek2ic-15" vertex="1">
          <mxGeometry x="55" y="404.5" width="140" height="45.5" as="geometry" />
        </mxCell>
        <mxCell id="vBMoFWrCB2iizXByDdXm-2" value="&amp;lt;&amp;lt;include&amp;gt;&amp;gt;" style="edgeStyle=none;html=1;endArrow=open;verticalAlign=bottom;dashed=1;labelBackgroundColor=none;rounded=0;startSize=17;endSize=7;curved=1;exitX=0.5;exitY=1;exitDx=0;exitDy=0;" edge="1" parent="CTTRBKpKclN4i-Cek2ic-15" source="CTTRBKpKclN4i-Cek2ic-18" target="CTTRBKpKclN4i-Cek2ic-19">
          <mxGeometry x="0.3333" y="35" width="160" relative="1" as="geometry">
            <mxPoint x="-240" y="550" as="sourcePoint" />
            <mxPoint x="-80" y="550" as="targetPoint" />
            <mxPoint as="offset" />
          </mxGeometry>
        </mxCell>
        <mxCell id="vBMoFWrCB2iizXByDdXm-4" value="&amp;lt;&amp;lt;include&amp;gt;&amp;gt;" style="edgeStyle=none;html=1;endArrow=open;verticalAlign=bottom;dashed=1;labelBackgroundColor=none;rounded=0;startSize=17;endSize=7;curved=1;entryX=0.5;entryY=1;entryDx=0;entryDy=0;exitX=0.5;exitY=0;exitDx=0;exitDy=0;" edge="1" parent="CTTRBKpKclN4i-Cek2ic-15" source="CTTRBKpKclN4i-Cek2ic-18" target="CTTRBKpKclN4i-Cek2ic-16">
          <mxGeometry x="-0.3333" y="-35" width="160" relative="1" as="geometry">
            <mxPoint x="60" y="300" as="sourcePoint" />
            <mxPoint x="220" y="300" as="targetPoint" />
            <mxPoint as="offset" />
          </mxGeometry>
        </mxCell>
        <mxCell id="CTTRBKpKclN4i-Cek2ic-31" style="edgeStyle=none;rounded=0;orthogonalLoop=1;jettySize=auto;html=1;entryX=1;entryY=0;entryDx=0;entryDy=0;startArrow=none;startFill=0;endArrow=none;endFill=0;startSize=17;endSize=7;" parent="1" source="CTTRBKpKclN4i-Cek2ic-25" target="CTTRBKpKclN4i-Cek2ic-16" edge="1">
          <mxGeometry relative="1" as="geometry" />
        </mxCell>
        <mxCell id="CTTRBKpKclN4i-Cek2ic-33" style="edgeStyle=none;rounded=0;orthogonalLoop=1;jettySize=auto;html=1;entryX=1;entryY=0;entryDx=0;entryDy=0;startArrow=none;startFill=0;endArrow=none;endFill=0;startSize=17;endSize=7;" parent="1" target="CTTRBKpKclN4i-Cek2ic-19" edge="1">
          <mxGeometry relative="1" as="geometry">
            <mxPoint x="570" y="220" as="sourcePoint" />
          </mxGeometry>
        </mxCell>
        <mxCell id="CTTRBKpKclN4i-Cek2ic-41" style="edgeStyle=orthogonalEdgeStyle;rounded=0;orthogonalLoop=1;jettySize=auto;html=1;entryX=1;entryY=0.5;entryDx=0;entryDy=0;startArrow=none;startFill=0;endArrow=none;endFill=0;startSize=17;endSize=7;curved=1;" parent="1" source="CTTRBKpKclN4i-Cek2ic-25" target="CTTRBKpKclN4i-Cek2ic-20" edge="1">
          <mxGeometry relative="1" as="geometry">
            <Array as="points">
              <mxPoint x="750" y="150" />
              <mxPoint x="750" y="547" />
            </Array>
          </mxGeometry>
        </mxCell>
        <mxCell id="CTTRBKpKclN4i-Cek2ic-25" value="&amp;lt;&amp;lt;service&amp;gt;&amp;gt;&lt;br&gt;Authentication" style="shape=umlActor;verticalLabelPosition=bottom;verticalAlign=top;html=1;" parent="1" vertex="1">
          <mxGeometry x="600" y="120" width="30" height="60" as="geometry" />
        </mxCell>
        <mxCell id="CTTRBKpKclN4i-Cek2ic-32" style="edgeStyle=none;rounded=0;orthogonalLoop=1;jettySize=auto;html=1;entryX=1;entryY=1;entryDx=0;entryDy=0;startArrow=none;startFill=0;endArrow=none;endFill=0;startSize=17;endSize=7;" parent="1" source="CTTRBKpKclN4i-Cek2ic-26" target="CTTRBKpKclN4i-Cek2ic-16" edge="1">
          <mxGeometry relative="1" as="geometry" />
        </mxCell>
        <mxCell id="CTTRBKpKclN4i-Cek2ic-34" style="edgeStyle=none;rounded=0;orthogonalLoop=1;jettySize=auto;html=1;startArrow=none;startFill=0;endArrow=none;endFill=0;startSize=17;endSize=7;entryX=0.929;entryY=0.28;entryDx=0;entryDy=0;entryPerimeter=0;" parent="1" source="CTTRBKpKclN4i-Cek2ic-26" target="CTTRBKpKclN4i-Cek2ic-19" edge="1">
          <mxGeometry relative="1" as="geometry">
            <mxPoint x="460" y="420" as="targetPoint" />
          </mxGeometry>
        </mxCell>
        <mxCell id="CTTRBKpKclN4i-Cek2ic-26" value="Identity&lt;br&gt;Provider" style="shape=umlActor;verticalLabelPosition=bottom;verticalAlign=top;html=1;" parent="1" vertex="1">
          <mxGeometry x="600" y="270" width="30" height="60" as="geometry" />
        </mxCell>
        <mxCell id="CTTRBKpKclN4i-Cek2ic-35" style="edgeStyle=none;rounded=0;orthogonalLoop=1;jettySize=auto;html=1;entryX=1;entryY=0.5;entryDx=0;entryDy=0;startArrow=none;startFill=0;endArrow=none;endFill=0;startSize=17;endSize=7;" parent="1" source="CTTRBKpKclN4i-Cek2ic-27" target="CTTRBKpKclN4i-Cek2ic-19" edge="1">
          <mxGeometry relative="1" as="geometry" />
        </mxCell>
        <mxCell id="CTTRBKpKclN4i-Cek2ic-27" value="Credit&lt;br&gt;Payment&lt;br&gt;Service" style="shape=umlActor;verticalLabelPosition=bottom;verticalAlign=top;html=1;" parent="1" vertex="1">
          <mxGeometry x="600" y="400" width="30" height="60" as="geometry" />
        </mxCell>
        <mxCell id="CTTRBKpKclN4i-Cek2ic-36" style="edgeStyle=none;rounded=0;orthogonalLoop=1;jettySize=auto;html=1;entryX=1;entryY=1;entryDx=0;entryDy=0;startArrow=none;startFill=0;endArrow=none;endFill=0;startSize=17;endSize=7;" parent="1" source="CTTRBKpKclN4i-Cek2ic-28" target="CTTRBKpKclN4i-Cek2ic-19" edge="1">
          <mxGeometry relative="1" as="geometry" />
        </mxCell>
        <mxCell id="CTTRBKpKclN4i-Cek2ic-28" value="PayPal" style="shape=umlActor;verticalLabelPosition=bottom;verticalAlign=top;html=1;" parent="1" vertex="1">
          <mxGeometry x="600" y="540" width="30" height="60" as="geometry" />
        </mxCell>
      </root>
    </mxGraphModel>
  </diagram>
</mxfile>
